<?xml version="1.0" encoding="UTF-8"?>
<svg xmlns="http://www.w3.org/2000/svg" version="1.1" xmlns:xlink="http://www.w3.org/1999/xlink" viewBox="0 0 1373.31 427.45">
  <defs>
    <style>
      .cls-1 {
        fill: #7b7268;
      }

      .cls-2 {
        fill: #e30613;
      }

      .cls-2, .cls-3, .cls-4 {
        fill-rule: evenodd;
      }

      .cls-5, .cls-3 {
        fill: #392307;
      }

      .cls-6 {
        fill: #fff;
      }

      .cls-7 {
        fill: none;
      }

      .cls-8 {
        clip-path: url(#clippath-1);
      }

      .cls-4 {
        fill: #0069a7;
      }

      .cls-9 {
        fill: #5c885a;
      }

      .cls-10 {
        fill: #3e5e3d;
      }

      .cls-11 {
        fill: #548dbc;
      }

      .cls-12 {
        fill: #382408;
      }

      .cls-13 {
        fill: #9f8564;
      }

      .cls-14 {
        clip-path: url(#clippath);
      }
    </style>
    <clipPath id="clippath">
      <rect class="cls-7" x="875.12" y="32.49" width="432.35" height="360.29"/>
    </clipPath>
    <clipPath id="clippath-1">
      <rect class="cls-7" x="875.12" y="32.49" width="432.35" height="360.29"/>
    </clipPath>
  </defs>
  <!-- Generator: Adobe Illustrator 28.6.0, SVG Export Plug-In . SVG Version: 1.2.0 Build 709)  -->
  <g>
    <g id="Camada_1">
      <g>
        <g>
          <path class="cls-12" d="M326.55,153.78l-3.21-.76v-2.06l7.17-.2h3.96c2.79,0,4.93.69,6.43,2.08,1.5,1.39,2.25,3.27,2.25,5.66,0,2.9-.89,5.1-2.66,6.61-1.77,1.51-4.28,2.27-7.52,2.27h-2.45v6.78l3.21.76v2.27h-10.37v-2.27l3.21-.76v-20.37ZM337.62,162.99c1.04-.91,1.57-2.22,1.57-3.92,0-1.56-.43-2.83-1.28-3.81-.85-.98-2.06-1.47-3.62-1.47h-3.78v10.57h2.45c2.06,0,3.62-.45,4.66-1.36Z"/>
          <path class="cls-12" d="M365.02,152c1.76,1.07,3.11,2.6,4.03,4.59.93,1.99,1.39,4.33,1.39,7.02s-.52,5.16-1.57,7.28c-1.04,2.11-2.51,3.75-4.39,4.92-1.88,1.17-4.04,1.75-6.47,1.75-3.7,0-6.54-1.15-8.53-3.44s-2.98-5.61-2.98-9.95c0-2.74.5-5.15,1.49-7.24.99-2.09,2.42-3.7,4.26-4.83,1.85-1.13,4.01-1.69,6.49-1.69s4.51.53,6.27,1.6ZM352.81,156.14c-1.32,1.69-1.98,4.3-1.98,7.83s.62,6.01,1.85,7.75c1.23,1.74,3.07,2.62,5.52,2.62s4.47-.88,5.85-2.65c1.38-1.77,2.07-4.4,2.07-7.9s-.64-5.9-1.92-7.62-3.16-2.57-5.63-2.57-4.44.85-5.76,2.54ZM354.68,147.45l6.87-5.47,1.92,2.76-7.35,4.72-1.44-2.01Z"/>
          <path class="cls-12" d="M379.95,173.7c.36.15.84.3,1.45.43.61.14,1.28.2,2.01.2,1.51,0,2.85-.36,4.02-1.07,1.17-.71,1.76-1.7,1.76-2.97,0-.81-.25-1.49-.76-2.04-.5-.55-1.13-.99-1.87-1.34-.74-.34-1.77-.76-3.07-1.23-1.71-.6-3.09-1.17-4.14-1.69-1.05-.53-1.95-1.29-2.69-2.28-.74-1-1.11-2.27-1.11-3.83,0-2.49.85-4.37,2.55-5.62,1.7-1.25,3.83-1.88,6.4-1.88,1.06,0,2.17.11,3.35.34s2.19.46,3.02.7c.84.24,1.36.4,1.58.47l-.18,6.41h-2.45l-1.29-4.03c-.1-.02-.34-.1-.72-.21-.38-.12-.87-.22-1.47-.32-.6-.1-1.2-.15-1.81-.15-1.61,0-2.85.36-3.72,1.08-.87.72-1.31,1.58-1.31,2.59,0,.81.25,1.49.76,2.04.5.55,1.13,1,1.89,1.35.76.36,1.81.77,3.18,1.25,1.63.58,2.97,1.12,4.02,1.64,1.04.52,1.93,1.24,2.66,2.18.73.94,1.1,2.13,1.1,3.56,0,1.8-.44,3.33-1.33,4.58s-2.07,2.17-3.56,2.77c-1.49.6-3.15.9-4.96.9-1.18,0-2.34-.11-3.48-.33-1.14-.22-2.09-.45-2.85-.69-.76-.24-1.24-.4-1.45-.47v-6.61h3.02l.76,3.96c.1.05.33.15.68.3Z"/>
          <path class="cls-12" d="M426.88,175.95c-.94.39-2.13.75-3.56,1.09-1.44.34-2.98.51-4.64.51-3.82,0-6.78-1.12-8.9-3.35-2.11-2.23-3.17-5.45-3.17-9.65,0-2.86.52-5.36,1.55-7.49,1.03-2.13,2.5-3.77,4.39-4.93,1.9-1.15,4.13-1.73,6.7-1.73,1.23,0,2.47.14,3.73.41s2.37.58,3.32.92c.96.34,1.44.52,1.44.54l-.18,6.23h-2.47l-1.12-4.14c-.12-.05-.42-.13-.88-.25-.47-.12-1.08-.23-1.83-.34-.76-.11-1.55-.17-2.39-.17-2.54,0-4.5.92-5.87,2.77-1.37,1.85-2.05,4.51-2.05,7.99,0,3.29.75,5.78,2.25,7.46,1.5,1.68,3.52,2.52,6.06,2.52.77,0,1.55-.07,2.33-.2.78-.13,1.43-.28,1.96-.43.53-.15.86-.25.99-.3v-6.19l-3.21-.75v-2.06l9.8-.2v2.27l-2.84.75v8.09s-.47.27-1.41.65Z"/>
          <path class="cls-12" d="M437.5,153.78l-3.21-.76v-2.06l7.17-.2h4.14c2.66,0,4.75.61,6.24,1.81,1.5,1.21,2.25,2.87,2.25,4.98,0,3.7-1.63,6.15-4.9,7.35.6.53,1.36,1.66,2.27,3.41l2.98,5.99,2.67.61v2.27h-5.66l-3.21-6.98c-.6-1.3-1.13-2.26-1.58-2.88-.45-.62-.94-1.05-1.46-1.29-.52-.24-1.2-.36-2.06-.36h-1.69v8.49l3.21.76v2.27h-10.37v-2.27l3.21-.76v-20.37ZM448.59,161.6c1.03-.83,1.55-1.99,1.55-3.47,0-1.25-.44-2.29-1.32-3.11-.88-.82-2.01-1.23-3.4-1.23h-3.96v9.06h2.84c1.83,0,3.26-.41,4.29-1.24Z"/>
          <path class="cls-12" d="M469.34,150.96l3.78-.2,8.38,23.43,3.13.72v2.27h-10.94v-2.27l3.5-.72-1.44-4.18h-9.8l-1.47,4.18,3.54.72v2.27h-10.37v-2.27l3.09-.72,8.6-23.23ZM470.92,155.64l-3.96,11.35h7.77l-3.81-11.35Z"/>
          <path class="cls-12" d="M488.72,153.78l-3.21-.76v-2.06l7.17-.2h4.72c3.72,0,6.63,1.11,8.73,3.34,2.1,2.23,3.15,5.39,3.15,9.5,0,2.74-.51,5.13-1.52,7.18-1.01,2.05-2.47,3.63-4.36,4.73-1.89,1.11-4.08,1.66-6.56,1.66h-11.33v-2.27l3.21-.76v-20.37ZM502.84,171.58c1.41-1.72,2.11-4.32,2.11-7.79s-.68-5.9-2.04-7.54c-1.36-1.64-3.26-2.46-5.7-2.46h-4.53v20.37h4.35c2.47,0,4.4-.86,5.81-2.58Z"/>
          <path class="cls-12" d="M534.25,174.75c-1.56,1.86-4.24,2.79-8.03,2.79-3.6,0-6.16-.86-7.7-2.58-1.54-1.72-2.3-4.38-2.3-7.98v-13.21l-3.21-.76v-2.06l10.76-.2v2.27l-3.59.76v13.21c0,1.89.21,3.36.64,4.42.43,1.06,1.1,1.81,2,2.26.9.45,2.1.67,3.58.67,1.58,0,2.82-.25,3.71-.75.89-.5,1.53-1.33,1.92-2.47.39-1.14.59-2.71.59-4.7v-12.64l-3.59-.76v-2.06l10.76-.2v2.27l-3.21.76v12.64c0,3.7-.78,6.47-2.34,8.33Z"/>
          <path class="cls-12" d="M551.44,150.96l3.78-.2,8.38,23.43,3.13.72v2.27h-10.94v-2.27l3.5-.72-1.44-4.18h-9.8l-1.47,4.18,3.54.72v2.27h-10.37v-2.27l3.09-.72,8.6-23.23ZM553.03,155.64l-3.96,11.35h7.77l-3.81-11.35Z"/>
          <path class="cls-12" d="M584.85,154.11c-.42-.12-.99-.23-1.71-.34-.72-.11-1.5-.17-2.33-.17-2.54,0-4.5.92-5.87,2.77-1.37,1.85-2.05,4.51-2.05,7.99,0,3.27.74,5.72,2.21,7.35,1.47,1.63,3.44,2.45,5.91,2.45,1.18,0,2.33-.23,3.44-.68,1.12-.45,2.08-.94,2.88-1.47.8-.53,1.21-.82,1.21-.87l1.51,2.45s-.37.37-1.11.97c-.74.6-1.69,1.18-2.83,1.74-1.14.57-2.41.95-3.79,1.14v1.4c1.01.17,1.79.54,2.36,1.11.56.57.85,1.32.85,2.24s-.4,1.75-1.21,2.37c-.8.62-1.78.93-2.94.93-.72,0-1.42-.09-2.07-.27-.66-.18-1.19-.36-1.58-.55-.4-.19-.65-.31-.75-.36l.98-1.58c.1.05.31.14.64.29.33.14.73.27,1.21.4.48.12.95.18,1.4.18.48,0,.88-.14,1.21-.41.33-.28.49-.64.49-1.1,0-.58-.27-1.04-.81-1.37-.54-.34-1.28-.51-2.21-.51v-2.69c-3.6-.15-6.38-1.33-8.35-3.54-1.97-2.21-2.96-5.35-2.96-9.43,0-2.86.52-5.36,1.55-7.49,1.03-2.13,2.5-3.77,4.39-4.93,1.9-1.15,4.13-1.73,6.7-1.73,1.23,0,2.47.14,3.73.41s2.37.58,3.32.92c.96.34,1.44.52,1.44.54l-.18,6.37h-2.84l-1.01-4.29c-.11-.05-.38-.13-.8-.25Z"/>
          <path class="cls-12" d="M601.88,150.96l3.78-.2,8.38,23.43,3.13.72v2.27h-10.94v-2.27l3.5-.72-1.44-4.18h-9.8l-1.47,4.18,3.54.72v2.27h-10.37v-2.27l3.09-.72,8.6-23.23ZM598.23,146.11c.37-.62.87-1.19,1.49-1.72s1.32-.79,2.09-.79c.6,0,1.17.08,1.71.23.54.15,1.15.38,1.84.67.72.31,1.3.52,1.71.64s.86.18,1.33.18.87-.12,1.23-.35.65-.48.85-.73c.2-.25.33-.42.39-.51l1.31,1.14c0,.07-.17.41-.51,1-.34.59-.8,1.14-1.39,1.64-.59.5-1.28.76-2.06.76-.6,0-1.16-.07-1.68-.22s-1.14-.36-1.86-.64c-.65-.28-1.2-.48-1.66-.61-.45-.12-.92-.18-1.4-.18-.45,0-.88.13-1.27.38-.39.25-.71.51-.94.77s-.38.43-.44.51l-1.31-1.12c0-.07.19-.42.56-1.04ZM603.47,155.64l-3.96,11.35h7.77l-3.81-11.35Z"/>
          <path class="cls-12" d="M637.52,152c1.76,1.07,3.11,2.6,4.03,4.59.93,1.99,1.39,4.33,1.39,7.02s-.52,5.16-1.57,7.28c-1.04,2.11-2.51,3.75-4.39,4.92s-4.04,1.75-6.47,1.75c-3.7,0-6.54-1.15-8.53-3.44-1.99-2.3-2.98-5.61-2.98-9.95,0-2.74.5-5.15,1.49-7.24.99-2.09,2.42-3.7,4.26-4.83,1.85-1.13,4.01-1.69,6.49-1.69s4.51.53,6.27,1.6ZM625.31,156.14c-1.32,1.69-1.98,4.3-1.98,7.83s.62,6.01,1.85,7.75c1.23,1.74,3.07,2.62,5.52,2.62s4.47-.88,5.85-2.65c1.38-1.77,2.07-4.4,2.07-7.9s-.64-5.9-1.92-7.62c-1.28-1.71-3.16-2.57-5.63-2.57s-4.44.85-5.76,2.54Z"/>
          <path class="cls-12" d="M671.93,161.91v3h-8.68v9.25h8.68l.76-3.78h2.45v6.8h-19.06v-2.27l3.21-.76v-20.37l-3.21-.76v-2.06l7.18-.2h11.49v6.43h-2.45l-.94-3.41h-8.1v8.12h8.68Z"/>
          <path class="cls-12" d="M702.43,155.29l-1.14,2.84-5.84,11.88-3.02.18-5.84-12.25-.96-2.65v18.86l3.59.76v2.27h-10.19v-2.27l3.21-.76v-20.37l-3.21-.76v-2.06l8.49-.2,6.82,15.1,7.13-14.9,7.94-.2v2.27l-3.22.76v20.37l3.22.76v2.27h-10.57v-2.27l3.59-.76v-18.86Z"/>
        </g>
        <g>
          <path class="cls-3" d="M644.5,333.25c9.95,5.09,20.65,8.02,31.14,8.02,20.45,0,34.98-12.84,34.98-30.21,0-12.63-7.06-21-19.91-23.93l-9.49-2.02c-3.16-.77-4.64-2.02-4.64-3.84,0-3,2.42-4.54,6.86-4.54,5.05,0,9.95,1.74,16.55,6.35l8.01-21.49c-8.74-5.02-16.08-7.26-25.09-7.26-20.65,0-35.72,12.84-35.72,30.49,0,11.86,7.53,20.17,19.91,22.4l8.54,1.81c3.63.49,5.31,2.02,5.31,4.26,0,3.07-3.16,5.09-7.26,5.09-5.65,0-12.44-2.51-17.02-6.35l-3.23-2.51-8.95,23.72Z"/>
          <path class="cls-3" d="M592.7,290.07v19.95h13.32c-1.41,4.54-5.85,7.33-11.64,7.33-9.01,0-15.34-7.53-15.34-18.14s6.79-19.19,16.35-19.19c5.11,0,8.21,1.74,11.17,6.35l27.51-10.67c-2.49-4.75-4.64-7.26-9.55-11.3-8.48-6.84-18.5-10.05-30.4-10.05-26.77,0-44.73,17.65-44.73,43.61s17.96,43.33,44.26,43.33c13.11,0,25.76-5.51,34.3-14.58,7.74-8.3,10.43-17.65,10.22-36.63h-45.47Z"/>
          <path class="cls-3" d="M472.03,339.74h28.65v-26.93l.47-.35c.27,1.05.54,1.33,1.01,2.58l11.64,24.7h34.1l-18.23-28.47c-1.01-1.53-1.95-2.3-4.37-3.84v-.7c5.52-1.81,8.47-3.28,10.63-5.86,3.23-3.77,5.18-9.84,5.18-16.4,0-10.54-4.44-18.63-13.18-24.21-5.31-3.49-10.7-4.75-19.44-4.75h-36.46v84.22ZM500.69,293.06v-14.37h5.11c3.9,0,6.59,3,6.59,7.33s-2.89,7.05-7.8,7.05h-3.9Z"/>
          <polygon class="cls-3" points="407.6 339.81 436.99 339.81 436.99 310.3 458.65 310.3 458.65 288.11 436.99 288.11 436.99 279.53 461.61 279.53 461.61 255.53 407.6 255.53 407.6 339.81"/>
          <path class="cls-3" d="M318.81,255.53v53.24c0,9.63,3.63,18.42,9.75,23.51,6.79,5.79,16.75,9,28.45,9,22.87,0,36.73-13.33,36.73-34.82v-50.94h-29.19v48.21c0,8.1-2.22,10.82-8.27,10.82-5.31,0-8.27-3.49-8.27-10.82v-48.21h-29.19Z"/>
        </g>
        <rect class="cls-5" x="318.81" y="233.37" width="392.92" height="5.69"/>
        <g>
          <path class="cls-12" d="M340.01,198.37c-.43-.11-1.01-.22-1.74-.32-.73-.1-1.52-.15-2.37-.15-2.35,0-4.16.89-5.41,2.68-1.25,1.79-1.87,4.49-1.87,8.11s.65,6.04,1.94,7.68c1.29,1.64,3.14,2.47,5.56,2.47,1.29,0,2.56-.23,3.81-.68,1.25-.45,2.32-.95,3.22-1.5.9-.55,1.35-.85,1.35-.9l2.43,3.96c0,.09-.56.56-1.68,1.41-1.12.85-2.53,1.64-4.24,2.35-1.71.71-3.59,1.07-5.64,1.07-4.49,0-7.97-1.33-10.42-4-2.46-2.66-3.68-6.54-3.68-11.62,0-3.42.61-6.37,1.83-8.85,1.22-2.48,2.95-4.39,5.18-5.71,2.23-1.32,4.85-1.98,7.85-1.98,1.59,0,3.15.15,4.65.46,1.51.31,2.82.65,3.94,1.01,1.12.37,1.68.56,1.68.59l-.22,8.38h-4.33l-1.01-4.24c-.11-.03-.39-.1-.82-.22Z"/>
          <path class="cls-12" d="M350.18,220.26l3.32-1.34v-20.72l-3.32-1.33v-3.75l13.46-.22v3.96l-3.32,1.33v20.72l3.32,1.34v3.75h-13.46v-3.75Z"/>
          <path class="cls-12" d="M386.61,210.32h-8.92v8.38h7.9l1.01-3.62h3.96v8.92h-23.03v-3.75l3.32-1.34v-20.72l-3.32-1.33v-3.75l10.14-.22h12.36v8.51h-3.98l-1.1-3.21h-7.28v7.28h8.92v4.85ZM377.93,182.58l3.92-.34,7.15,6.12-2.13,2.93-6.66-4.33-6.91,4.33-2.13-2.93,6.76-5.77Z"/>
          <path class="cls-12" d="M394.71,220.26l3.29-1.34v-20.72l-3.29-1.33v-3.75l10.58-.22,11.91,20.38v-15.08l-3.21-1.33v-3.75l12.56-.22v3.96l-3.3,1.33v25.81h-7.37l-11.83-19.99v14.91l3.45,1.34v3.75h-12.79v-3.75Z"/>
          <path class="cls-12" d="M449.24,198.37c-.43-.11-1.01-.22-1.74-.32-.73-.1-1.52-.15-2.37-.15-2.35,0-4.16.89-5.41,2.68-1.25,1.79-1.87,4.49-1.87,8.11s.65,6.04,1.94,7.68c1.29,1.64,3.14,2.47,5.56,2.47,1.29,0,2.56-.23,3.81-.68,1.25-.45,2.32-.95,3.22-1.5.9-.55,1.35-.85,1.35-.9l2.43,3.96c0,.09-.56.56-1.68,1.41-1.12.85-2.53,1.64-4.24,2.35-1.71.71-3.59,1.07-5.64,1.07-4.49,0-7.97-1.33-10.42-4-2.46-2.66-3.68-6.54-3.68-11.62,0-3.42.61-6.37,1.83-8.85,1.22-2.48,2.95-4.39,5.18-5.71,2.23-1.32,4.85-1.98,7.85-1.98,1.59,0,3.15.15,4.65.46,1.51.31,2.82.65,3.94,1.01,1.12.37,1.68.56,1.68.59l-.22,8.38h-4.33l-1.01-4.24c-.11-.03-.39-.1-.82-.22Z"/>
          <path class="cls-12" d="M459.41,220.26l3.32-1.34v-20.72l-3.32-1.33v-3.75l13.46-.22v3.96l-3.32,1.33v20.72l3.32,1.34v3.75h-13.46v-3.75Z"/>
          <path class="cls-12" d="M507.57,224h-14.04v-3.75l3.32-1.19-1.06-3.23h-9.8l-1.1,3.19,3.45,1.23v3.75h-13.33v-3.75l3.23-1.23,9.69-26,7.07-.13,9.48,26.13,3.1,1.23v3.75ZM491.03,200.67l-3.49,10.45h6.78l-3.29-10.45Z"/>
          <path class="cls-12" d="M523.57,198.2l-3.32-1.33v-3.75l10.14-.22h4.2c4.47,0,7.92,1.3,10.36,3.89s3.66,6.34,3.66,11.26c0,3.26-.6,6.1-1.81,8.51-1.21,2.41-2.91,4.26-5.12,5.54s-4.79,1.92-7.76,1.92h-13.68v-3.75l3.32-1.34v-20.72ZM539.35,216.3c1.23-1.6,1.85-4.28,1.85-8.05s-.57-6.16-1.72-7.72c-1.15-1.56-2.86-2.34-5.13-2.34h-3.96v20.51h3.66c2.3,0,4.06-.8,5.3-2.4Z"/>
          <path class="cls-12" d="M578.24,196.51c2.43,2.75,3.64,6.59,3.64,11.54,0,3.26-.62,6.14-1.85,8.64-1.24,2.5-2.97,4.44-5.21,5.83-2.24,1.39-4.81,2.08-7.71,2.08-4.41,0-7.79-1.35-10.14-4.06-2.36-2.71-3.53-6.65-3.53-11.84,0-3.35.58-6.25,1.76-8.7,1.17-2.46,2.85-4.34,5.05-5.64,2.2-1.31,4.77-1.96,7.73-1.96,4.42,0,7.85,1.38,10.27,4.13ZM562.61,200.34c-1.13,1.63-1.69,4.34-1.69,8.13s.51,6.33,1.54,8.03c1.03,1.71,2.64,2.56,4.86,2.56s4.05-.85,5.25-2.54c1.2-1.69,1.8-4.45,1.8-8.27,0-3.59-.54-6.21-1.63-7.87-1.08-1.66-2.75-2.49-4.99-2.49s-4.01.82-5.14,2.45Z"/>
          <path class="cls-12" d="M603.61,218.45c.38.14.89.28,1.52.42.63.14,1.33.21,2.09.21,1.49,0,2.76-.32,3.79-.95s1.55-1.51,1.55-2.63c0-.67-.23-1.24-.68-1.7-.45-.46-1.03-.84-1.72-1.15-.7-.31-1.7-.7-3.03-1.17-1.94-.68-3.54-1.34-4.8-2-1.26-.66-2.36-1.62-3.28-2.86-.93-1.25-1.39-2.87-1.39-4.87s.48-3.66,1.45-5.07,2.3-2.48,4-3.2c1.69-.72,3.61-1.08,5.75-1.08,1.46,0,2.92.13,4.36.39,1.44.26,2.63.53,3.58.81.94.28,1.53.47,1.78.57l-.24,8.01h-4.05l-1.1-3.75c-.11-.03-.37-.09-.75-.19-.39-.1-.87-.21-1.44-.31-.57-.11-1.13-.16-1.68-.16-1.49,0-2.65.3-3.47.88-.82.59-1.23,1.34-1.23,2.26s.44,1.69,1.32,2.23,2.28,1.15,4.19,1.82c1.94.68,3.54,1.34,4.79,1.98,1.26.65,2.33,1.57,3.23,2.78s1.35,2.75,1.35,4.63c0,2.15-.52,4-1.55,5.55-1.03,1.54-2.45,2.71-4.24,3.51s-3.83,1.2-6.12,1.2c-1.46,0-2.93-.13-4.38-.38-1.46-.25-2.67-.51-3.63-.78s-1.57-.44-1.83-.53v-8.46h4.5l.67,3.7c.09.06.32.16.7.3Z"/>
          <path class="cls-12" d="M649.12,196.51c2.43,2.75,3.64,6.59,3.64,11.54,0,3.26-.62,6.14-1.85,8.64-1.24,2.5-2.97,4.44-5.21,5.83-2.24,1.39-4.81,2.08-7.71,2.08-4.41,0-7.79-1.35-10.14-4.06-2.36-2.71-3.53-6.65-3.53-11.84,0-3.35.58-6.25,1.76-8.7,1.17-2.46,2.85-4.34,5.05-5.64,2.2-1.31,4.77-1.96,7.73-1.96,4.42,0,7.85,1.38,10.27,4.13ZM633.49,200.34c-1.13,1.63-1.69,4.34-1.69,8.13s.51,6.33,1.54,8.03c1.03,1.71,2.64,2.56,4.86,2.56s4.05-.85,5.25-2.54c1.2-1.69,1.8-4.45,1.8-8.27,0-3.59-.54-6.21-1.63-7.87-1.08-1.66-2.75-2.49-4.99-2.49s-4.01.82-5.14,2.45Z"/>
          <path class="cls-12" d="M674.54,213.86h4.18v10.14h-22.06v-3.75l3.32-1.34v-20.72l-3.32-1.33v-3.75l13.46-.22v3.96l-3.32,1.33v20.51h6.76l.97-4.85Z"/>
          <path class="cls-12" d="M705.48,196.51c2.43,2.75,3.64,6.59,3.64,11.54,0,3.26-.62,6.14-1.85,8.64-1.24,2.5-2.97,4.44-5.21,5.83-2.24,1.39-4.81,2.08-7.71,2.08-4.41,0-7.79-1.35-10.14-4.06-2.36-2.71-3.53-6.65-3.53-11.84,0-3.35.58-6.25,1.76-8.7,1.17-2.46,2.85-4.34,5.05-5.64,2.2-1.31,4.77-1.96,7.73-1.96,4.42,0,7.85,1.38,10.27,4.13ZM689.85,200.34c-1.13,1.63-1.69,4.34-1.69,8.13s.51,6.33,1.54,8.03c1.03,1.71,2.64,2.56,4.86,2.56s4.05-.85,5.25-2.54c1.2-1.69,1.8-4.45,1.8-8.27,0-3.59-.54-6.21-1.63-7.87-1.08-1.66-2.75-2.49-4.99-2.49s-4.01.82-5.14,2.45Z"/>
        </g>
        <g>
          <g>
            <path class="cls-11" d="M62.78,222.46c-.03-18.76-.07-37.52-.1-56.28,37.62-20.95,75.25-41.9,112.87-62.85,35.77,20.95,71.53,41.9,107.3,62.85,0,18.02-.02,36.04-.02,54.06-1.93,3.41-36.62,62.34-105.97,64.9-46.35,1.71-90.21-22.42-114.08-62.68Z"/>
            <path class="cls-6" d="M172.21,287.3c-45.41,0-87.7-24.13-111.22-63.78l-.29-.49-.11-58.02,1.07-.65,113.91-63.43,1.02.6,108.33,63.45-.02,55.8-.27.48c-1.46,2.58-36.6,63.33-107.7,65.95-1.58.06-3.15.09-4.73.09ZM64.86,221.89c23.61,39.42,66.42,62.85,111.93,61.18,66.4-2.45,100.4-57.29,103.97-63.38l.02-52.32-105.25-61.65-110.77,61.68.1,54.49Z"/>
          </g>
          <path class="cls-9" d="M62.68,214.52c12.63-12.05,39.9-19.37,39.9-19.37,1.13,2.39,2.55,4.97,4.33,7.64,4.29,6.42,9.13,10.98,13.1,14.09,2.97,2.25,6.62,4.45,11.01,6.14,18.63,7.18,36.51-.45,41.82-2.96,2.54,1.41,21.92,11.76,43.85,2.92,19.12-7.71,26.49-24.48,27.83-27.7,4.99,1.68,10.27,3.85,15.91,6.25,8.49,3.61,18.05,8.2,22.34,12.09-36.06,21.54-72.11,43.08-108.17,64.63-37.31-21.25-74.61-42.49-111.92-63.74Z"/>
          <path class="cls-1" d="M62.68,312.14c0-4.62.01-9.24.02-13.85,5.69-1.01,14.24-1.99,24.4-.91,47.71,5.07,56.85,47.67,87.78,47.16,30.05-.49,37.47-40.97,83.86-47.16,10.34-1.38,19.09-.58,24.85.3.06,5.25.13,10.5.19,15.74-36.39,21.28-72.79,42.56-109.18,63.83-37.31-21.7-74.61-43.41-111.92-65.11Z"/>
          <path class="cls-5" d="M62.79,213.49c.13,17.13.26,34.25.39,51.38,5.52-.8,13.93-1.52,23.91-.31,48.33,5.85,57.14,47.66,87.78,47.16,29.86-.49,37.09-40.46,83.86-47.16,10.22-1.46,18.86-.84,24.5-.1-.16-16.94-.32-33.88-.47-50.82-35.9,21.55-71.8,43.1-107.71,64.65-37.42-21.6-74.84-43.2-112.26-64.8Z"/>
          <path class="cls-13" d="M63.19,297.68v-32.82c5.52-.8,13.93-1.52,23.91-.31,48.33,5.85,57.14,47.66,87.78,47.16,29.86-.49,37.09-40.46,83.86-47.16,10.22-1.46,18.86-.84,24.5-.1.11,11.07.23,22.14.34,33.22-5.76-.88-14.5-1.68-24.85-.3-46.39,6.19-53.81,46.67-83.86,47.16-30.64.5-39.45-41.31-87.78-47.16-9.99-1.21-18.39-.49-23.91.31Z"/>
          <path class="cls-6" d="M174.37,346.96c-14.87,0-25.02-9.43-35.76-19.4-12.48-11.6-26.63-24.74-51.81-27.78-7.64-.92-15.47-.82-23.28.3l-.69-4.8c8.23-1.19,16.49-1.29,24.55-.32,26.74,3.24,41.5,16.95,54.53,29.05,10.57,9.82,19.66,18.3,32.93,18.1,12.88-.2,21.49-8.5,31.45-18.12,12.29-11.86,26.21-25.3,52.1-29.01,8.47-1.22,17.2-1.22,25.94,0l-.67,4.81c-8.28-1.15-16.55-1.15-24.58,0-24.33,3.49-37.66,16.35-49.41,27.7-10.26,9.9-19.95,19.26-34.75,19.48-.18,0-.36,0-.54,0Z"/>
          <polygon class="cls-6" points="174.79 280.31 62.57 216.27 65.13 211.78 174.75 274.33 281.78 211.44 284.4 215.91 174.79 280.31"/>
          <path class="cls-6" d="M174.6,379.68l-114.02-66.34.12-100.77.67-.62c19.3-18.05,40.27-18.87,41.16-18.9l1.38-.04.59,1.25c2.6,5.55,5.59,10.35,8.89,14.24.06.06,6.36,7.02,14.88,11.09,18.6,8.9,39.69.36,43.72-1.44l.94-.42.91.49c2.45,1.32,24.54,12.54,46.34.81,13.12-7.06,19.14-18.64,21.57-24.91l.68-1.75,1.81.47c5.79,1.5,11.5,3.48,16.97,5.86,8.06,3.51,15.74,7.97,22.83,13.25l.83.62,1.03,102.04-111.29,65.07ZM64.78,310.93l109.81,63.88,107.07-62.6-.99-97.51c-6.59-4.82-13.71-8.9-21.16-12.15-4.71-2.05-9.61-3.79-14.57-5.17-3.02,7.06-9.62,18.26-22.78,25.34-21.99,11.84-44.16,2.27-49.41-.34-6.02,2.53-27.22,10.13-46.32.99-9.44-4.52-16.21-12.09-16.27-12.17-3.27-3.86-6.25-8.52-8.86-13.86-4.73.5-21.19,3.18-36.41,17.05l-.11,96.52Z"/>
          <path class="cls-6" d="M174.37,314.15c-14.87,0-25.02-9.42-35.76-19.4-12.48-11.59-26.63-24.74-51.81-27.78-7.64-.93-15.47-.82-23.28.3l-.69-4.8c8.23-1.18,16.49-1.29,24.55-.32,26.74,3.24,41.5,16.95,54.53,29.05,10.57,9.82,19.66,18.3,32.93,18.1,12.88-.2,21.49-8.5,31.45-18.12,12.29-11.86,26.21-25.3,52.1-29.01,8.48-1.22,17.2-1.22,25.94,0l-.67,4.81c-8.28-1.15-16.55-1.15-24.58,0-24.33,3.49-37.66,16.35-49.41,27.7-10.26,9.9-19.95,19.26-34.75,19.48-.18,0-.36,0-.54,0Z"/>
          <g>
            <g>
              <path class="cls-10" d="M173.08,147.18s-9.6,17.6-12.44,23.64c-.74,1.59-2.02,4.88-2.43,6.58-.37,1.54-.9,4.73-.76,6.31.2,2.27,1.31,6.87,2.3,8.93.9,1.88,2.62,5.31,4.69,8.4,3.6,5.36,8.65,10.87,8.65,10.87,0,0,4.04-4.02,7.66-9.28,2.97-4.32,5.78-9.9,6.64-12.37.75-2.17,1.19-4.64,1.23-6.94.03-1.58-.4-5.73-1.37-8.37-.63-1.7-1.75-4.28-2.24-5.27-3.31-6.65-11.92-22.49-11.92-22.49Z"/>
              <path class="cls-6" d="M173.03,214.55l-1.29-1.4c-.21-.23-5.19-5.67-8.82-11.08-1.6-2.38-3.22-5.28-4.82-8.63-1.11-2.31-2.26-7.12-2.47-9.56-.17-1.98.47-5.5.8-6.9.46-1.89,1.8-5.31,2.56-6.93,2.83-6.03,12.1-23.02,12.49-23.74l1.61-2.95,1.6,2.95c.09.16,8.66,15.95,11.95,22.55.55,1.11,1.68,3.73,2.32,5.45,1.09,2.96,1.51,7.42,1.49,9.04-.05,2.5-.52,5.17-1.33,7.51-.95,2.74-3.84,8.42-6.86,12.81-3.67,5.34-7.71,9.37-7.88,9.54l-1.35,1.34ZM173.08,151.02c-2.86,5.27-8.7,16.15-10.78,20.58-.75,1.6-1.95,4.74-2.31,6.23-.37,1.54-.82,4.47-.72,5.72.18,2.06,1.24,6.46,2.12,8.3,1.5,3.14,3.08,5.97,4.56,8.17,2.38,3.55,5.46,7.21,7.18,9.18,1.46-1.59,3.88-4.37,6.11-7.62,3-4.36,5.65-9.73,6.41-11.93.69-1.99,1.09-4.25,1.13-6.38.02-1.43-.39-5.34-1.26-7.71-.61-1.66-1.72-4.19-2.16-5.09-2.39-4.81-7.63-14.56-10.28-19.47Z"/>
            </g>
            <path class="cls-6" d="M173.09,170.37s-.69,9.69-.93,12.92c-.18,2.41-.71,7.52-.74,9.93-.02,1.71-.19,5.17-.02,8.18.24,4.22.99,8.71.99,8.71l.48.56h.48s.5-.64.5-.64c0,0,.61-4.35.87-8.52.2-3.19.07-6.3.06-8.08-.02-2.5-.63-7.87-.81-10.36-.22-3.17-.89-12.7-.89-12.7Z"/>
            <g>
              <path class="cls-10" d="M240.31,183.72s-20.04-.33-26.71-.03c-1.75.08-5.26.48-6.96.9-1.54.39-4.6,1.4-5.94,2.26-1.92,1.23-5.48,4.35-6.84,6.18-1.24,1.67-3.48,4.78-5.26,8.05-3.08,5.68-5.65,12.52-5.65,12.52,0,0,5.48,1.9,11.82,2.66,5.21.62,11.45.52,14.04.13,2.27-.34,4.66-1.11,6.72-2.14,1.41-.71,4.89-3.02,6.78-5.11,1.21-1.35,2.97-3.53,3.62-4.43,4.35-6.02,14.38-21,14.38-21Z"/>
              <path class="cls-6" d="M202.89,218.55c-2.66,0-5.63-.14-8.33-.46-6.46-.77-11.97-2.67-12.21-2.75l-1.77-.62.66-1.76c.11-.28,2.65-7.03,5.75-12.75,1.37-2.52,3.18-5.3,5.4-8.28,1.53-2.05,5.26-5.31,7.32-6.63,1.68-1.07,5.09-2.14,6.48-2.49,1.89-.47,5.54-.88,7.32-.96,6.65-.3,26.01.01,26.83.03l3.36.05-1.87,2.79c-.1.15-10.09,15.08-14.42,21.06-.73,1.01-2.53,3.23-3.75,4.59-2.12,2.35-5.87,4.79-7.32,5.52-2.23,1.12-4.81,1.94-7.27,2.31-1.41.21-3.65.34-6.2.34ZM185.38,212.45c2.08.6,5.7,1.54,9.62,2.01,5.26.63,11.24.48,13.55.14,2.08-.31,4.27-1.01,6.17-1.96,1.28-.64,4.55-2.82,6.24-4.7,1.18-1.31,2.91-3.46,3.5-4.28,3.14-4.35,9.34-13.52,12.46-18.15-5.99-.08-18.34-.2-23.23.02-1.77.08-5.1.48-6.59.85-1.54.39-4.34,1.35-5.4,2.03-1.74,1.12-5.14,4.1-6.36,5.74-2.08,2.79-3.85,5.5-5.12,7.83-2.04,3.76-3.87,8.1-4.83,10.48Z"/>
            </g>
            <path class="cls-6" d="M219.78,194.51s-8.9,3.89-11.87,5.18c-2.22.96-6.99,2.87-9.14,3.96-1.52.77-4.67,2.24-7.25,3.78-3.62,2.17-7.25,4.92-7.25,4.92l-.28.69.22.43.8.15s4.14-1.48,7.95-3.19c2.91-1.3,5.61-2.86,7.18-3.7,2.2-1.18,6.68-4.22,8.8-5.53,2.71-1.67,10.83-6.69,10.83-6.69Z"/>
            <g>
              <g>
                <path class="cls-10" d="M105.13,184.52s11.56,16.38,15.74,21.59c1.1,1.37,3.49,3.96,4.84,5.09,1.22,1.02,3.85,2.89,5.33,3.46,2.13.82,6.75,1.85,9.03,1.88,2.08.02,5.92,0,9.6-.51,6.4-.86,13.51-3.15,13.51-3.15,0,0-1.76-5.23-4.89-10.8-2.57-4.57-6.34-9.55-8.18-11.41-1.62-1.63-3.64-3.11-5.69-4.16-1.4-.72-5.32-2.17-8.12-2.46-1.8-.19-4.61-.32-5.72-.31-7.43.04-25.44.78-25.44.78Z"/>
                <path class="cls-6" d="M141,218.37c-.32,0-.64,0-.96,0-2.56-.03-7.39-1.11-9.67-2-1.85-.72-4.73-2.84-5.84-3.76-1.5-1.25-3.98-3.96-5.09-5.35-4.16-5.19-15.33-21.01-15.8-21.68l-1.94-2.74,3.36-.14c.18,0,18.13-.75,25.51-.78,1.18-.02,4.09.13,5.91.32,3.15.33,7.33,1.91,8.77,2.65,2.22,1.14,4.41,2.74,6.16,4.5,2.05,2.07,5.87,7.17,8.47,11.8,3.17,5.65,4.96,10.89,5.03,11.11l.59,1.76-1.77.57c-.3.09-7.34,2.34-13.82,3.22-2.59.35-5.59.53-8.91.53ZM108.57,186.22c3.47,4.89,10.66,14.93,13.72,18.75,1.11,1.38,3.39,3.84,4.58,4.82,1.22,1.01,3.65,2.71,4.82,3.17,1.93.75,6.34,1.73,8.38,1.75,3.49.03,6.72-.14,9.34-.49,4.24-.57,8.87-1.8,11.36-2.52-.76-1.96-2.17-5.28-4.1-8.71-2.59-4.61-6.24-9.36-7.88-11.02-1.48-1.5-3.34-2.85-5.23-3.82-1.27-.65-4.96-2.01-7.47-2.27-1.76-.18-4.52-.3-5.52-.3-5.37.03-16.43.43-22.01.64Z"/>
              </g>
              <path class="cls-6" d="M125.95,194.74s8.39,4.89,11.19,6.53c2.08,1.22,6.44,3.95,8.59,5.04,1.52.77,4.56,2.45,7.33,3.62,3.89,1.65,8.25,2.95,8.25,2.95l.72-.18.22-.43-.35-.74s-3.64-2.47-7.26-4.54c-2.77-1.58-5.62-2.84-7.22-3.62-2.25-1.08-7.35-2.9-9.66-3.84-2.95-1.2-11.79-4.8-11.79-4.8Z"/>
            </g>
          </g>
        </g>
        <path class="cls-12" d="M403.35,166.57h-6.42v-2.82h6.42v2.82Z"/>
      </g>
      <g id="Logo_UFRGS">
        <g class="cls-14">
          <g class="cls-8">
            <path class="cls-2" d="M1075.4,156.14c6.1-33.64-18.38-22.05-29.14-52.35-10.15-28.45,17.76-63.24,53.28-48.94-24.2,3.84-29.49,37.42-19.54,47.44,20.3,20.49,18.58,45.88-4.6,53.85"/>
            <path class="cls-4" d="M1285.57,346.49h-6.31v25.18h13.85v-5.55h-7.54v-19.63ZM1260.89,346.49h-6.38v14.58c0,3.7.48,5.69,1.71,7.47,1.72,2.35,5.01,3.84,8.64,3.84s6.38-1.21,8.44-3.63c1.72-2.06,2.4-3.98,2.4-7.68v-14.58h-6.38v13.66c0,2.63-.07,3.41-.62,4.34-.68,1.21-2.05,2.07-3.7,2.07-1.44,0-2.74-.78-3.5-1.92-.55-1.07-.62-1.56-.62-4.48v-13.66ZM1251.08,347.92c-2.47-1.28-5.14-1.99-7.68-1.99-4.87,0-8.23,3.41-8.23,8.54,0,2.13.62,3.7,1.85,4.84.82.78,1.92,1.28,4.73,2.13,2.88.92,3.77,1.49,3.77,2.92s-1.23,2.42-3.08,2.42-3.64-.78-5.62-2.56l-2.61,5.26c2.54,1.85,5.49,2.92,8.37,2.92,2.33,0,4.46-.64,6.03-1.71,2.33-1.56,3.43-3.91,3.43-7.33,0-3.63-1.72-5.69-5.97-6.97l-1.37-.5c-.96-.28-1.03-.28-1.3-.43-1.1-.5-1.65-1.21-1.65-1.92,0-1.21,1.16-2.2,2.67-2.2s2.74.5,4.11,1.78l2.54-5.19ZM1209.73,345.71c-3.22,0-6.24,1.14-8.5,2.92-3.02,2.49-4.94,6.4-4.94,10.31,0,7.9,5.69,13.73,13.44,13.73s13.37-5.9,13.37-13.51c0-3.34-1.1-6.4-3.15-8.82-2.61-3.06-6.03-4.62-10.22-4.62M1173.59,371.67h9.33c6.38,0,11.86-5.76,11.86-12.59s-5.49-12.59-11.86-12.59h-9.33v25.18ZM1161.46,352.11v-5.62h-13.78v25.18h13.78v-5.55h-7.48v-4.34h7.06v-5.55h-7.06v-4.13h7.48ZM1123.81,371.67h9.33c6.45,0,11.93-5.76,11.93-12.59s-5.49-12.59-11.93-12.59h-9.33v25.18ZM1096.11,371.67h6.31v-15.36l11.52,15.36h6.38v-25.18h-6.38v15.36l-11.52-15.36h-6.31v25.18ZM1086.58,367.33l1.51,4.34h6.79l-9.19-25.18h-6.86l-9.33,25.18h6.65l1.65-4.34h8.78ZM1062.99,361.36c1.44-.28,2.19-.64,2.95-1.35,1.51-1.28,2.33-3.41,2.33-5.76,0-1.99-.69-4.05-1.99-5.48-1.44-1.57-3.22-2.28-5.97-2.28h-9.81v25.18h6.31v-9.6l5.97,9.6h7.89l-7.68-10.31ZM1035.49,357.73v5.05h5.21c-.21,1.28-.41,1.92-.89,2.56-.89,1.21-2.33,1.78-4.11,1.78-1.65,0-3.02-.5-4.11-1.56-1.44-1.49-2.33-3.91-2.33-6.33,0-4.48,2.67-7.82,6.24-7.82,2.47,0,4.18,1.28,5.28,3.99l5.97-2.56c-2.26-4.84-5.76-7.11-10.97-7.11-7.75,0-13.17,5.48-13.17,13.51s5.35,13.44,12.96,13.44c5.14,0,8.98-2.49,11.04-6.9.96-2.06,1.37-4.2,1.44-8.04h-12.55ZM998.19,345.71c-3.22,0-6.24,1.14-8.5,2.92-3.02,2.49-4.94,6.4-4.94,10.31,0,7.9,5.69,13.73,13.44,13.73s13.37-5.9,13.37-13.51c0-3.34-1.03-6.4-3.09-8.82-2.67-3.06-6.03-4.62-10.29-4.62M982.28,346.49h-6.38v25.18h6.38v-25.18ZM967.19,361.36c1.37-.28,2.13-.64,2.95-1.35,1.44-1.28,2.26-3.41,2.26-5.76,0-1.99-.69-4.05-1.99-5.48-1.44-1.57-3.15-2.28-5.96-2.28h-9.81v25.18h6.31v-9.6l5.97,9.6h7.89l-7.61-10.31ZM929.14,345.71c-3.22,0-6.31,1.14-8.57,2.92-3.02,2.49-4.87,6.4-4.87,10.31,0,7.9,5.62,13.73,13.44,13.73s13.37-5.9,13.37-13.51c0-3.34-1.1-6.4-3.15-8.82-2.61-3.06-6.03-4.62-10.22-4.62M893,371.67h9.33c6.38,0,11.86-5.76,11.86-12.59s-5.49-12.59-11.86-12.59h-9.33v25.18ZM1209.73,352.11c3.77,0,6.86,3.13,6.86,7.04s-3.08,7.11-6.86,7.11-6.86-3.2-6.86-7.11,3.09-7.04,6.86-7.04M1179.9,366.12v-14.01h1.51c2.26,0,3.84.57,5.14,2.06,1.1,1.28,1.72,2.99,1.72,4.91s-.62,3.63-1.72,4.91c-1.3,1.49-2.88,2.13-5.14,2.13h-1.51ZM1130.19,366.12v-14.01h1.44c2.33,0,3.84.57,5.21,2.06,1.03,1.28,1.72,2.99,1.72,4.91s-.69,3.63-1.72,4.91c-1.37,1.49-2.88,2.13-5.21,2.13h-1.44ZM1084.79,362.35h-5.21l2.68-8.11,2.54,8.11ZM1056.82,357.8v-6.26h1.17c1.17,0,2.13.28,2.67.71.69.5,1.17,1.49,1.17,2.42,0,.85-.48,1.92-1.17,2.49-.55.43-1.51.64-2.67.64h-1.17ZM998.19,352.11c3.77,0,6.86,3.13,6.86,7.04s-3.09,7.11-6.86,7.11-6.79-3.2-6.79-7.11,3.02-7.04,6.79-7.04M960.95,357.8v-6.26h1.17c1.17,0,2.13.28,2.67.71.69.5,1.17,1.49,1.17,2.42,0,.85-.48,1.92-1.17,2.49-.55.43-1.51.64-2.67.64h-1.17ZM929.14,352.11c3.77,0,6.86,3.13,6.86,7.04s-3.09,7.11-6.86,7.11-6.86-3.2-6.86-7.11,3.02-7.04,6.86-7.04M899.31,366.12v-14.01h1.44c2.33,0,3.84.57,5.14,2.06,1.17,1.28,1.78,2.99,1.78,4.91s-.62,3.63-1.78,4.91c-1.3,1.49-2.81,2.13-5.14,2.13h-1.44Z"/>
            <path class="cls-4" d="M1285.37,312.06h-6.38v25.18h13.92v-5.62h-7.54v-19.56ZM1268.57,332.91l1.51,4.34h6.72l-9.12-25.18h-6.86l-9.26,25.18h6.58l1.71-4.34h8.71ZM1244.02,326.93c1.51-.28,2.19-.71,3.02-1.35,1.44-1.28,2.33-3.42,2.33-5.76,0-2.06-.75-4.05-2.06-5.48-1.44-1.56-3.15-2.28-5.96-2.28h-9.81v25.18h6.31v-9.6l5.97,9.6h7.88l-7.68-10.31ZM1228.11,317.61v-5.55h-13.78v25.18h13.78v-5.62h-7.47v-4.27h7.06v-5.62h-7.06v-4.13h7.47ZM1189.57,337.25h9.33c6.38,0,11.93-5.83,11.93-12.59s-5.55-12.59-11.93-12.59h-9.33v25.18ZM1186.14,317.61v-5.55h-13.78v25.18h13.78v-5.62h-7.48v-4.27h7.06v-5.62h-7.06v-4.13h7.48ZM1169.14,317.61v-5.55h-13.92v25.18h6.38v-9.89h6.92v-5.62h-6.92v-4.13h7.54ZM1141.3,317.61v-5.55h-13.78v25.18h13.78v-5.62h-7.48v-4.27h7.06v-5.62h-7.06v-4.13h7.48ZM1102.76,337.25h9.33c6.38,0,11.93-5.83,11.93-12.59s-5.56-12.59-11.93-12.59h-9.33v25.18ZM1092.27,332.91l1.51,4.34h6.79l-9.12-25.18h-6.86l-9.33,25.18h6.65l1.65-4.34h8.71ZM1053.8,337.25h9.33c6.45,0,11.93-5.83,11.93-12.59s-5.49-12.59-11.93-12.59h-9.33v25.18ZM1049.27,312.06h-6.31v25.18h6.31v-25.18ZM1038.65,313.49c-2.47-1.28-5.21-2.06-7.75-2.06-4.87,0-8.16,3.49-8.16,8.54,0,2.2.55,3.77,1.78,4.91.89.78,1.99,1.28,4.73,2.13,2.88.92,3.77,1.49,3.77,2.84,0,1.49-1.23,2.49-3.02,2.49-1.92,0-3.7-.78-5.62-2.56l-2.67,5.26c2.54,1.85,5.49,2.84,8.43,2.84,2.26,0,4.39-.57,6.03-1.71,2.26-1.49,3.43-3.84,3.43-7.26,0-3.63-1.78-5.69-5.97-6.97l-1.37-.5c-.96-.28-1.1-.28-1.37-.43-1.1-.57-1.65-1.21-1.65-1.92,0-1.28,1.23-2.28,2.67-2.28s2.74.57,4.18,1.78l2.54-5.12ZM1013,326.93c1.51-.28,2.19-.71,3.02-1.35,1.44-1.28,2.33-3.42,2.33-5.76,0-2.06-.75-4.05-2.06-5.48-1.44-1.56-3.22-2.28-5.97-2.28h-9.81v25.18h6.31v-9.6l5.97,9.6h7.82l-7.61-10.31ZM997.09,317.61v-5.55h-13.78v25.18h13.78v-5.62h-7.47v-4.27h7.06v-5.62h-7.06v-4.13h7.47ZM962.74,312.06h-6.86l10.22,25.18h4.87l10.35-25.18h-6.86l-5.83,15.3-5.9-15.3ZM953.89,312.06h-6.31v25.18h6.31v-25.18ZM918.85,337.25h6.31v-15.36l11.59,15.36h6.31v-25.18h-6.31v15.36l-11.59-15.36h-6.31v25.18ZM899.51,312.06h-6.31v14.58c0,3.63.48,5.69,1.71,7.4,1.71,2.35,5.01,3.84,8.57,3.84s6.38-1.21,8.5-3.56c1.71-2.06,2.33-4.05,2.33-7.68v-14.58h-6.31v13.66c0,2.63-.07,3.34-.69,4.34-.62,1.21-1.99,2.06-3.63,2.06-1.51,0-2.81-.78-3.5-1.99-.62-1.07-.69-1.57-.69-4.41v-13.66ZM1266.85,327.93h-5.28l2.68-8.11,2.61,8.11ZM1237.85,323.37v-6.26h1.17c1.16,0,2.12.21,2.74.64.62.57,1.17,1.57,1.17,2.42,0,.92-.55,1.99-1.17,2.49-.62.43-1.58.71-2.74.71h-1.17ZM1195.88,331.63v-14.01h1.51c2.33,0,3.84.64,5.14,2.13,1.1,1.28,1.71,2.99,1.71,4.91s-.62,3.63-1.71,4.91c-1.3,1.49-2.81,2.06-5.14,2.06h-1.51ZM1109.07,331.63v-14.01h1.51c2.26,0,3.84.64,5.14,2.13,1.03,1.28,1.72,2.99,1.72,4.91s-.69,3.63-1.72,4.91c-1.3,1.49-2.88,2.06-5.14,2.06h-1.51ZM1090.55,327.93h-5.28l2.74-8.11,2.54,8.11ZM1060.11,331.63v-14.01h1.51c2.26,0,3.84.64,5.14,2.13,1.1,1.28,1.78,2.99,1.78,4.91s-.69,3.63-1.78,4.91c-1.3,1.49-2.88,2.06-5.14,2.06h-1.51ZM1006.83,323.37v-6.26h1.17c1.17,0,2.13.21,2.74.64.62.57,1.17,1.57,1.17,2.42,0,.92-.55,1.99-1.17,2.49-.62.43-1.58.71-2.74.71h-1.17Z"/>
            <path class="cls-4" d="M1225.37,268.67c10.15,5.19,21.05,8.18,31.75,8.18,20.84,0,35.66-13.09,35.66-30.8,0-12.87-7.2-21.41-20.3-24.4l-9.67-2.06c-3.22-.78-4.73-2.06-4.73-3.91,0-3.06,2.47-4.62,6.99-4.62,5.14,0,10.15,1.78,16.87,6.47l8.16-21.91c-8.91-5.12-16.39-7.4-25.58-7.4-21.05,0-36.41,13.09-36.41,31.08,0,12.09,7.68,20.56,20.3,22.84l8.71,1.85c3.7.5,5.42,2.06,5.42,4.34,0,3.13-3.22,5.19-7.41,5.19-5.76,0-12.68-2.56-17.35-6.47l-3.29-2.56-9.12,24.18Z"/>
            <path class="cls-4" d="M1172.57,224.64v20.34h13.58c-1.44,4.62-5.97,7.47-11.86,7.47-9.19,0-15.63-7.68-15.63-18.49s6.93-19.56,16.66-19.56c5.21,0,8.37,1.78,11.38,6.47l28.05-10.88c-2.54-4.84-4.73-7.4-9.74-11.52-8.64-6.97-18.86-10.24-31-10.24-27.29,0-45.6,18-45.6,44.46s18.31,44.17,45.12,44.17c13.37,0,26.26-5.62,34.97-14.87,7.89-8.46,10.63-18,10.42-37.34h-46.35Z"/>
            <path class="cls-4" d="M1049.55,275.29h29.21v-27.46l.48-.36c.27,1.07.55,1.35,1.03,2.63l11.86,25.18h34.77l-18.58-29.02c-1.03-1.56-1.99-2.35-4.46-3.91v-.71c5.62-1.85,8.64-3.34,10.84-5.98,3.29-3.84,5.28-10.03,5.28-16.71,0-10.74-4.53-18.99-13.44-24.68-5.42-3.56-10.9-4.84-19.82-4.84h-37.17v85.86ZM1078.76,227.7v-14.65h5.21c3.98,0,6.72,3.06,6.72,7.47s-2.95,7.18-7.95,7.18h-3.98Z"/>
            <polygon class="cls-4" points="983.86 275.36 1013.82 275.36 1013.82 245.27 1035.9 245.27 1035.9 222.65 1013.82 222.65 1013.82 213.9 1038.92 213.9 1038.92 189.43 983.86 189.43 983.86 275.36"/>
            <path class="cls-4" d="M893.34,189.43v54.27c0,9.82,3.7,18.78,9.94,23.97,6.93,5.9,17.08,9.18,29.01,9.18,23.31,0,37.44-13.59,37.44-35.5v-51.93h-29.76v49.15c0,8.25-2.26,11.03-8.43,11.03-5.42,0-8.43-3.56-8.43-11.03v-49.15h-29.76Z"/>
            <path class="cls-4" d="M1066.55,175.71c2.4,0,4.39,2.06,4.39,4.55s-1.99,4.48-4.39,4.48-4.32-1.92-4.32-4.48,1.92-4.55,4.32-4.55"/>
            <path class="cls-4" d="M1091.1,175.71c2.4,0,4.39,2.06,4.39,4.55s-1.99,4.48-4.39,4.48-4.39-1.92-4.39-4.48,1.99-4.55,4.39-4.55"/>
            <path class="cls-4" d="M1078.9,175.71c2.33,0,4.32,2.06,4.32,4.55s-1.99,4.48-4.32,4.48c-2.47,0-4.46-1.92-4.46-4.48s1.99-4.55,4.46-4.55"/>
            <path class="cls-4" d="M1144.32,158.49h-130.97c43.68,16.93,87.36,16.93,130.97,0"/>
            <path class="cls-2" d="M1112.84,77.12c-4.6,2.06-13.58,11.1.35,23.19,16.39,14.37,7.61,60.11-32.44,55.84,19.13-3.41,25.03-30.58,14.81-42.54-13.44-15.58-2.54-37.98,17.28-36.49"/>
            <path class="cls-2" d="M1072.38,155.58c-13.3-19.2-15.02-5.55-33.46-15.65-14.33-7.82-21.39-35.5,2.06-50.36-6.93,14.15-5.14,30.09,10.7,37.63,14.19,6.76,22.97,9.89,20.71,28.38"/>
          </g>
        </g>
      </g>
    </g>
  </g>
</svg>